<mxfile host="app.diagrams.net" modified="2023-10-17T05:10:36.160Z" agent="Mozilla/5.0 (Windows NT 10.0; Win64; x64) AppleWebKit/537.36 (KHTML, like Gecko) Chrome/118.0.0.0 Safari/537.36" etag="nbL5yURGGK4SdW3S-WSd" version="22.0.4" type="github">
  <diagram name="Page-1" id="m5wkQbvLFle2x2xH0aHW">
    <mxGraphModel dx="1222" dy="714" grid="1" gridSize="10" guides="1" tooltips="1" connect="1" arrows="1" fold="1" page="1" pageScale="1" pageWidth="2339" pageHeight="3300" math="0" shadow="0">
      <root>
        <mxCell id="0" />
        <mxCell id="1" parent="0" />
        <mxCell id="WAETzjnuh80vZSOcKl2x-2" value="" style="swimlane;startSize=0;" parent="1" vertex="1">
          <mxGeometry x="760" y="240" width="720" height="1240" as="geometry" />
        </mxCell>
        <mxCell id="WAETzjnuh80vZSOcKl2x-3" value="&lt;font style=&quot;font-size: 16px;&quot;&gt;Crop listing&lt;/font&gt;" style="ellipse;whiteSpace=wrap;html=1;" parent="WAETzjnuh80vZSOcKl2x-2" vertex="1">
          <mxGeometry x="130" y="140" width="200" height="120" as="geometry" />
        </mxCell>
        <mxCell id="WAETzjnuh80vZSOcKl2x-4" value="&lt;font style=&quot;font-size: 16px;&quot;&gt;Add product into cart&lt;/font&gt;" style="ellipse;whiteSpace=wrap;html=1;" parent="WAETzjnuh80vZSOcKl2x-2" vertex="1">
          <mxGeometry x="140" y="300" width="200" height="120" as="geometry" />
        </mxCell>
        <mxCell id="WAETzjnuh80vZSOcKl2x-10" value="&lt;font style=&quot;font-size: 16px;&quot;&gt;Receive notification after order placed successfully&lt;/font&gt;" style="ellipse;whiteSpace=wrap;html=1;" parent="WAETzjnuh80vZSOcKl2x-2" vertex="1">
          <mxGeometry x="140" y="460" width="200" height="120" as="geometry" />
        </mxCell>
        <mxCell id="WAETzjnuh80vZSOcKl2x-11" value="&lt;font style=&quot;font-size: 16px;&quot;&gt;Discount code&lt;/font&gt;" style="ellipse;whiteSpace=wrap;html=1;" parent="WAETzjnuh80vZSOcKl2x-2" vertex="1">
          <mxGeometry x="150" y="950" width="200" height="120" as="geometry" />
        </mxCell>
        <mxCell id="WAETzjnuh80vZSOcKl2x-25" value="&lt;font style=&quot;font-size: 16px;&quot;&gt;Delivery method&lt;/font&gt;" style="ellipse;whiteSpace=wrap;html=1;" parent="WAETzjnuh80vZSOcKl2x-2" vertex="1">
          <mxGeometry x="140" y="620" width="200" height="120" as="geometry" />
        </mxCell>
        <mxCell id="WAETzjnuh80vZSOcKl2x-26" value="&lt;font style=&quot;font-size: 16px;&quot;&gt;Order automatically cancelled&lt;/font&gt;" style="ellipse;whiteSpace=wrap;html=1;" parent="WAETzjnuh80vZSOcKl2x-2" vertex="1">
          <mxGeometry x="140" y="780" width="200" height="120" as="geometry" />
        </mxCell>
        <mxCell id="WAETzjnuh80vZSOcKl2x-27" value="&lt;font style=&quot;font-size: 16px;&quot;&gt;Invalid discount code&lt;/font&gt;" style="ellipse;whiteSpace=wrap;html=1;" parent="WAETzjnuh80vZSOcKl2x-2" vertex="1">
          <mxGeometry x="390" y="840" width="140" height="90" as="geometry" />
        </mxCell>
        <mxCell id="WAETzjnuh80vZSOcKl2x-30" value="&amp;lt;&amp;lt;exclude&amp;gt;&amp;gt;" style="text;html=1;strokeColor=none;fillColor=none;align=center;verticalAlign=middle;whiteSpace=wrap;rounded=0;" parent="WAETzjnuh80vZSOcKl2x-2" vertex="1">
          <mxGeometry x="310" y="920" width="60" height="30" as="geometry" />
        </mxCell>
        <mxCell id="WAETzjnuh80vZSOcKl2x-31" value="&lt;font style=&quot;font-size: 16px;&quot;&gt;Send notification after order placed successfully&lt;/font&gt;" style="ellipse;whiteSpace=wrap;html=1;" parent="WAETzjnuh80vZSOcKl2x-2" vertex="1">
          <mxGeometry x="400" y="540" width="200" height="120" as="geometry" />
        </mxCell>
        <mxCell id="WAETzjnuh80vZSOcKl2x-33" value="&lt;font style=&quot;font-size: 16px;&quot;&gt;Unsuccessful payment&lt;/font&gt;" style="ellipse;whiteSpace=wrap;html=1;" parent="WAETzjnuh80vZSOcKl2x-2" vertex="1">
          <mxGeometry x="410" y="680" width="160" height="110" as="geometry" />
        </mxCell>
        <mxCell id="WAETzjnuh80vZSOcKl2x-34" value="" style="endArrow=classic;html=1;rounded=0;entryX=0;entryY=1;entryDx=0;entryDy=0;exitX=0.998;exitY=0.347;exitDx=0;exitDy=0;exitPerimeter=0;" parent="WAETzjnuh80vZSOcKl2x-2" source="WAETzjnuh80vZSOcKl2x-26" target="WAETzjnuh80vZSOcKl2x-33" edge="1">
          <mxGeometry width="50" height="50" relative="1" as="geometry">
            <mxPoint x="260" y="840" as="sourcePoint" />
            <mxPoint x="310" y="790" as="targetPoint" />
          </mxGeometry>
        </mxCell>
        <mxCell id="WAETzjnuh80vZSOcKl2x-35" value="&amp;lt;&amp;lt;include&amp;gt;&amp;gt;" style="text;html=1;strokeColor=none;fillColor=none;align=center;verticalAlign=middle;whiteSpace=wrap;rounded=0;fontSize=13;" parent="WAETzjnuh80vZSOcKl2x-2" vertex="1">
          <mxGeometry x="340" y="770" width="60" height="30" as="geometry" />
        </mxCell>
        <mxCell id="WAETzjnuh80vZSOcKl2x-37" value="&lt;font style=&quot;font-size: 16px;&quot;&gt;Pay for order&lt;/font&gt;" style="ellipse;whiteSpace=wrap;html=1;" parent="WAETzjnuh80vZSOcKl2x-2" vertex="1">
          <mxGeometry x="150" y="1100" width="200" height="120" as="geometry" />
        </mxCell>
        <mxCell id="WAETzjnuh80vZSOcKl2x-54" value="" style="endArrow=classic;html=1;rounded=0;entryX=0.959;entryY=0.266;entryDx=0;entryDy=0;entryPerimeter=0;exitX=0.078;exitY=0.79;exitDx=0;exitDy=0;exitPerimeter=0;" parent="WAETzjnuh80vZSOcKl2x-2" source="WAETzjnuh80vZSOcKl2x-27" target="WAETzjnuh80vZSOcKl2x-11" edge="1">
          <mxGeometry width="50" height="50" relative="1" as="geometry">
            <mxPoint x="450" y="940" as="sourcePoint" />
            <mxPoint x="500" y="890" as="targetPoint" />
          </mxGeometry>
        </mxCell>
        <mxCell id="WAETzjnuh80vZSOcKl2x-63" value="" style="endArrow=classic;html=1;rounded=0;entryX=1;entryY=0.5;entryDx=0;entryDy=0;exitX=0;exitY=0;exitDx=0;exitDy=0;" parent="WAETzjnuh80vZSOcKl2x-2" source="WAETzjnuh80vZSOcKl2x-31" target="WAETzjnuh80vZSOcKl2x-10" edge="1">
          <mxGeometry width="50" height="50" relative="1" as="geometry">
            <mxPoint x="390" y="600" as="sourcePoint" />
            <mxPoint x="440" y="550" as="targetPoint" />
          </mxGeometry>
        </mxCell>
        <mxCell id="WAETzjnuh80vZSOcKl2x-69" value="&lt;font style=&quot;font-size: 39px;&quot;&gt;&lt;b&gt;Ordering and Transaction&lt;/b&gt;&lt;/font&gt;" style="text;html=1;strokeColor=none;fillColor=none;align=center;verticalAlign=middle;whiteSpace=wrap;rounded=0;" parent="WAETzjnuh80vZSOcKl2x-2" vertex="1">
          <mxGeometry x="117.5" y="18" width="485" height="30" as="geometry" />
        </mxCell>
        <mxCell id="WAETzjnuh80vZSOcKl2x-71" value="&lt;font style=&quot;font-size: 22px;&quot;&gt;&lt;b&gt;&lt;i&gt;User and System&lt;/i&gt;&lt;/b&gt;&lt;/font&gt;" style="text;html=1;strokeColor=none;fillColor=none;align=center;verticalAlign=middle;whiteSpace=wrap;rounded=0;" parent="WAETzjnuh80vZSOcKl2x-2" vertex="1">
          <mxGeometry x="190" y="60" width="340" height="30" as="geometry" />
        </mxCell>
        <mxCell id="WAETzjnuh80vZSOcKl2x-5" value="&lt;font style=&quot;font-size: 19px;&quot;&gt;User&lt;/font&gt;" style="shape=umlActor;verticalLabelPosition=bottom;verticalAlign=top;html=1;outlineConnect=0;" parent="1" vertex="1">
          <mxGeometry x="329" y="872" width="70" height="140" as="geometry" />
        </mxCell>
        <mxCell id="WAETzjnuh80vZSOcKl2x-7" value="&lt;font style=&quot;font-size: 19px;&quot;&gt;Consumer&lt;/font&gt;" style="shape=umlActor;verticalLabelPosition=bottom;verticalAlign=top;html=1;outlineConnect=0;" parent="1" vertex="1">
          <mxGeometry x="529" y="698" width="70" height="140" as="geometry" />
        </mxCell>
        <mxCell id="WAETzjnuh80vZSOcKl2x-8" value="&lt;font style=&quot;font-size: 19px;&quot;&gt;Farmers&lt;/font&gt;" style="shape=umlActor;verticalLabelPosition=bottom;verticalAlign=top;html=1;outlineConnect=0;" parent="1" vertex="1">
          <mxGeometry x="529" y="978" width="70" height="140" as="geometry" />
        </mxCell>
        <mxCell id="WAETzjnuh80vZSOcKl2x-9" value="" style="strokeWidth=2;html=1;shape=mxgraph.flowchart.annotation_2;align=left;labelPosition=right;pointerEvents=1;" parent="1" vertex="1">
          <mxGeometry x="429" y="778" width="58" height="280" as="geometry" />
        </mxCell>
        <mxCell id="WAETzjnuh80vZSOcKl2x-36" value="&lt;font style=&quot;font-size: 19px;&quot;&gt;System&lt;/font&gt;" style="shape=umlActor;verticalLabelPosition=bottom;verticalAlign=top;html=1;outlineConnect=0;" parent="1" vertex="1">
          <mxGeometry x="1620" y="900" width="70" height="140" as="geometry" />
        </mxCell>
        <mxCell id="WAETzjnuh80vZSOcKl2x-38" value="" style="endArrow=none;html=1;rounded=0;entryX=0.007;entryY=0.669;entryDx=0;entryDy=0;entryPerimeter=0;" parent="1" target="WAETzjnuh80vZSOcKl2x-3" edge="1">
          <mxGeometry width="50" height="50" relative="1" as="geometry">
            <mxPoint x="640" y="740" as="sourcePoint" />
            <mxPoint x="690" y="680" as="targetPoint" />
          </mxGeometry>
        </mxCell>
        <mxCell id="WAETzjnuh80vZSOcKl2x-39" value="&lt;font style=&quot;font-size: 16px;&quot;&gt;Place order&lt;/font&gt;" style="edgeLabel;html=1;align=center;verticalAlign=middle;resizable=0;points=[];" parent="WAETzjnuh80vZSOcKl2x-38" vertex="1" connectable="0">
          <mxGeometry x="-0.0993" y="5" relative="1" as="geometry">
            <mxPoint y="-1" as="offset" />
          </mxGeometry>
        </mxCell>
        <mxCell id="WAETzjnuh80vZSOcKl2x-40" value="" style="endArrow=none;html=1;rounded=0;entryX=0;entryY=0.5;entryDx=0;entryDy=0;" parent="1" target="WAETzjnuh80vZSOcKl2x-4" edge="1">
          <mxGeometry width="50" height="50" relative="1" as="geometry">
            <mxPoint x="640" y="750" as="sourcePoint" />
            <mxPoint x="690" y="690" as="targetPoint" />
          </mxGeometry>
        </mxCell>
        <mxCell id="WAETzjnuh80vZSOcKl2x-42" value="" style="endArrow=none;html=1;rounded=0;entryX=0.978;entryY=0.681;entryDx=0;entryDy=0;entryPerimeter=0;" parent="1" target="WAETzjnuh80vZSOcKl2x-31" edge="1">
          <mxGeometry width="50" height="50" relative="1" as="geometry">
            <mxPoint x="1600" y="960" as="sourcePoint" />
            <mxPoint x="1690" y="860" as="targetPoint" />
          </mxGeometry>
        </mxCell>
        <mxCell id="WAETzjnuh80vZSOcKl2x-43" value="" style="endArrow=none;html=1;rounded=0;entryX=0;entryY=0.5;entryDx=0;entryDy=0;" parent="1" target="WAETzjnuh80vZSOcKl2x-10" edge="1">
          <mxGeometry width="50" height="50" relative="1" as="geometry">
            <mxPoint x="640" y="760" as="sourcePoint" />
            <mxPoint x="690" y="710" as="targetPoint" />
          </mxGeometry>
        </mxCell>
        <mxCell id="WAETzjnuh80vZSOcKl2x-44" value="" style="endArrow=none;html=1;rounded=0;entryX=0;entryY=0.5;entryDx=0;entryDy=0;" parent="1" target="WAETzjnuh80vZSOcKl2x-25" edge="1">
          <mxGeometry width="50" height="50" relative="1" as="geometry">
            <mxPoint x="640" y="770" as="sourcePoint" />
            <mxPoint x="690" y="720" as="targetPoint" />
          </mxGeometry>
        </mxCell>
        <mxCell id="WAETzjnuh80vZSOcKl2x-59" value="&lt;font style=&quot;font-size: 16px;&quot;&gt;Select&lt;/font&gt;" style="edgeLabel;html=1;align=center;verticalAlign=middle;resizable=0;points=[];" parent="WAETzjnuh80vZSOcKl2x-44" vertex="1" connectable="0">
          <mxGeometry x="0.1178" y="-1" relative="1" as="geometry">
            <mxPoint x="16" y="6" as="offset" />
          </mxGeometry>
        </mxCell>
        <mxCell id="WAETzjnuh80vZSOcKl2x-45" value="" style="endArrow=none;html=1;rounded=0;entryX=0;entryY=0.5;entryDx=0;entryDy=0;" parent="1" target="WAETzjnuh80vZSOcKl2x-26" edge="1">
          <mxGeometry width="50" height="50" relative="1" as="geometry">
            <mxPoint x="640" y="780" as="sourcePoint" />
            <mxPoint x="690" y="730" as="targetPoint" />
          </mxGeometry>
        </mxCell>
        <mxCell id="WAETzjnuh80vZSOcKl2x-46" value="" style="endArrow=none;html=1;rounded=0;entryX=0;entryY=1;entryDx=0;entryDy=0;" parent="1" target="WAETzjnuh80vZSOcKl2x-3" edge="1">
          <mxGeometry width="50" height="50" relative="1" as="geometry">
            <mxPoint x="640" y="1020" as="sourcePoint" />
            <mxPoint x="690" y="970" as="targetPoint" />
          </mxGeometry>
        </mxCell>
        <mxCell id="WAETzjnuh80vZSOcKl2x-47" value="" style="endArrow=none;html=1;rounded=0;entryX=0;entryY=0.5;entryDx=0;entryDy=0;" parent="1" target="WAETzjnuh80vZSOcKl2x-11" edge="1">
          <mxGeometry width="50" height="50" relative="1" as="geometry">
            <mxPoint x="640" y="1060" as="sourcePoint" />
            <mxPoint x="690" y="1010" as="targetPoint" />
          </mxGeometry>
        </mxCell>
        <mxCell id="WAETzjnuh80vZSOcKl2x-57" value="&lt;font style=&quot;font-size: 16px;&quot;&gt;Set&lt;/font&gt;" style="edgeLabel;html=1;align=center;verticalAlign=middle;resizable=0;points=[];" parent="WAETzjnuh80vZSOcKl2x-47" vertex="1" connectable="0">
          <mxGeometry x="0.5391" relative="1" as="geometry">
            <mxPoint as="offset" />
          </mxGeometry>
        </mxCell>
        <mxCell id="WAETzjnuh80vZSOcKl2x-48" value="" style="endArrow=none;html=1;rounded=0;entryX=0.046;entryY=0.251;entryDx=0;entryDy=0;entryPerimeter=0;" parent="1" target="WAETzjnuh80vZSOcKl2x-11" edge="1">
          <mxGeometry width="50" height="50" relative="1" as="geometry">
            <mxPoint x="640" y="800" as="sourcePoint" />
            <mxPoint x="690" y="740" as="targetPoint" />
          </mxGeometry>
        </mxCell>
        <mxCell id="WAETzjnuh80vZSOcKl2x-58" value="&lt;font style=&quot;font-size: 16px;&quot;&gt;Use&lt;/font&gt;" style="edgeLabel;html=1;align=center;verticalAlign=middle;resizable=0;points=[];" parent="WAETzjnuh80vZSOcKl2x-48" vertex="1" connectable="0">
          <mxGeometry x="0.3019" y="-1" relative="1" as="geometry">
            <mxPoint as="offset" />
          </mxGeometry>
        </mxCell>
        <mxCell id="WAETzjnuh80vZSOcKl2x-49" value="" style="endArrow=none;html=1;rounded=0;entryX=0;entryY=0.5;entryDx=0;entryDy=0;" parent="1" target="WAETzjnuh80vZSOcKl2x-37" edge="1">
          <mxGeometry width="50" height="50" relative="1" as="geometry">
            <mxPoint x="640" y="820" as="sourcePoint" />
            <mxPoint x="690" y="770" as="targetPoint" />
          </mxGeometry>
        </mxCell>
        <mxCell id="WAETzjnuh80vZSOcKl2x-56" value="&lt;font style=&quot;font-size: 16px;&quot;&gt;Pay&lt;/font&gt;" style="edgeLabel;html=1;align=center;verticalAlign=middle;resizable=0;points=[];" parent="WAETzjnuh80vZSOcKl2x-49" vertex="1" connectable="0">
          <mxGeometry x="0.4778" y="-2" relative="1" as="geometry">
            <mxPoint y="-1" as="offset" />
          </mxGeometry>
        </mxCell>
        <mxCell id="WAETzjnuh80vZSOcKl2x-51" value="" style="endArrow=none;html=1;rounded=0;exitX=1;exitY=0.5;exitDx=0;exitDy=0;" parent="1" source="WAETzjnuh80vZSOcKl2x-37" edge="1">
          <mxGeometry width="50" height="50" relative="1" as="geometry">
            <mxPoint x="1590" y="1040" as="sourcePoint" />
            <mxPoint x="1600" y="1020" as="targetPoint" />
          </mxGeometry>
        </mxCell>
        <mxCell id="WAETzjnuh80vZSOcKl2x-53" value="&lt;font style=&quot;font-size: 16px;&quot;&gt;Facilitate payment&lt;/font&gt;" style="edgeLabel;html=1;align=center;verticalAlign=middle;resizable=0;points=[];" parent="WAETzjnuh80vZSOcKl2x-51" vertex="1" connectable="0">
          <mxGeometry x="-0.0961" y="1" relative="1" as="geometry">
            <mxPoint as="offset" />
          </mxGeometry>
        </mxCell>
        <mxCell id="WAETzjnuh80vZSOcKl2x-55" value="" style="endArrow=none;html=1;rounded=0;entryX=1;entryY=0.5;entryDx=0;entryDy=0;" parent="1" target="WAETzjnuh80vZSOcKl2x-4" edge="1">
          <mxGeometry width="50" height="50" relative="1" as="geometry">
            <mxPoint x="1600" y="940" as="sourcePoint" />
            <mxPoint x="1650" y="890" as="targetPoint" />
          </mxGeometry>
        </mxCell>
        <mxCell id="WAETzjnuh80vZSOcKl2x-60" value="" style="endArrow=none;html=1;rounded=0;entryX=0;entryY=1;entryDx=0;entryDy=0;" parent="1" target="WAETzjnuh80vZSOcKl2x-10" edge="1">
          <mxGeometry width="50" height="50" relative="1" as="geometry">
            <mxPoint x="640" y="1040" as="sourcePoint" />
            <mxPoint x="690" y="990" as="targetPoint" />
          </mxGeometry>
        </mxCell>
        <mxCell id="WAETzjnuh80vZSOcKl2x-61" value="" style="endArrow=none;html=1;rounded=0;entryX=0.05;entryY=0.76;entryDx=0;entryDy=0;entryPerimeter=0;" parent="1" target="WAETzjnuh80vZSOcKl2x-25" edge="1">
          <mxGeometry width="50" height="50" relative="1" as="geometry">
            <mxPoint x="640" y="1050" as="sourcePoint" />
            <mxPoint x="690" y="1000" as="targetPoint" />
          </mxGeometry>
        </mxCell>
        <mxCell id="WAETzjnuh80vZSOcKl2x-62" value="&lt;font style=&quot;font-size: 16px;&quot;&gt;Edit&lt;/font&gt;" style="edgeLabel;html=1;align=center;verticalAlign=middle;resizable=0;points=[];" parent="WAETzjnuh80vZSOcKl2x-61" vertex="1" connectable="0">
          <mxGeometry x="0.6054" y="-2" relative="1" as="geometry">
            <mxPoint as="offset" />
          </mxGeometry>
        </mxCell>
        <mxCell id="WAETzjnuh80vZSOcKl2x-65" value="" style="endArrow=none;html=1;rounded=0;entryX=1;entryY=0.5;entryDx=0;entryDy=0;" parent="1" target="WAETzjnuh80vZSOcKl2x-26" edge="1">
          <mxGeometry width="50" height="50" relative="1" as="geometry">
            <mxPoint x="1600" y="980" as="sourcePoint" />
            <mxPoint x="1650" y="940" as="targetPoint" />
          </mxGeometry>
        </mxCell>
        <mxCell id="WAETzjnuh80vZSOcKl2x-66" value="&lt;font style=&quot;font-size: 16px;&quot;&gt;Cancel&lt;/font&gt;" style="edgeLabel;html=1;align=center;verticalAlign=middle;resizable=0;points=[];" parent="WAETzjnuh80vZSOcKl2x-65" vertex="1" connectable="0">
          <mxGeometry x="-0.0248" relative="1" as="geometry">
            <mxPoint as="offset" />
          </mxGeometry>
        </mxCell>
        <mxCell id="WAETzjnuh80vZSOcKl2x-67" value="" style="endArrow=none;html=1;rounded=0;entryX=1.017;entryY=0.584;entryDx=0;entryDy=0;entryPerimeter=0;" parent="1" target="WAETzjnuh80vZSOcKl2x-11" edge="1">
          <mxGeometry width="50" height="50" relative="1" as="geometry">
            <mxPoint x="1600" y="1000" as="sourcePoint" />
            <mxPoint x="1650" y="970" as="targetPoint" />
          </mxGeometry>
        </mxCell>
        <mxCell id="WAETzjnuh80vZSOcKl2x-68" value="&lt;font style=&quot;font-size: 16px;&quot;&gt;Check&lt;/font&gt;" style="edgeLabel;html=1;align=center;verticalAlign=middle;resizable=0;points=[];" parent="WAETzjnuh80vZSOcKl2x-67" vertex="1" connectable="0">
          <mxGeometry x="0.2673" y="1" relative="1" as="geometry">
            <mxPoint as="offset" />
          </mxGeometry>
        </mxCell>
      </root>
    </mxGraphModel>
  </diagram>
</mxfile>
